# xmcd CD database file
#
# Track frame offsets:
#	225
#	21181
#	44687
#	64329
#	89918
#	108607
#	137515
#	158041
#	182220
#	200579
#	230575
#	256812
#	274637
#	296562
#
# Disc length: 4167 seconds
#
# Revision: 1
# Processed by: cddbd v1.4PL0 Copyright (c) Steve Scherf et al.
# Submitted via: CDex 1.50Beta7
#
DISCID=d710440e
DTITLE=Dudu Tucci - Inae
DYEAR=2000
DGENRE=Jazz
TTITLE0=Batucagé
TTITLE1=Carnaval
TTITLE2=Segura O Passo
TTITLE3=Cielo Abierto
TTITLE4=Imagem
TTITLE5=Inae
TTITLE6=Mar
TTITLE7=Passaro De Migracao
TTITLE8=Cabecile
TTITLE9=Luana
TTITLE10=Balaio
TTITLE11=Estrela
TTITLE12=Aluar
TTITLE13=Amazonia
EXTD=YEAR: 2000
EXTT0=
EXTT1=
EXTT2=
EXTT3=
EXTT4=
EXTT5=
EXTT6=
EXTT7=
EXTT8=
EXTT9=
EXTT10=
EXTT11=
EXTT12=
EXTT13=
PLAYORDER=
